<mxfile host="app.diagrams.net" modified="2020-11-10T09:17:40.346Z" agent="5.0 (Macintosh; Intel Mac OS X 10_15_7) AppleWebKit/537.36 (KHTML, like Gecko) Chrome/86.0.4240.183 Safari/537.36" etag="JHgqVI0GK6u40i0ucml6" version="13.9.3" type="github">
  <diagram id="prtHgNgQTEPvFCAcTncT" name="Page-1">
    <mxGraphModel dx="1186" dy="644" grid="1" gridSize="10" guides="1" tooltips="1" connect="1" arrows="1" fold="1" page="1" pageScale="1" pageWidth="827" pageHeight="1169" math="0" shadow="0">
      <root>
        <mxCell id="0" />
        <mxCell id="1" parent="0" />
        <mxCell id="dNxyNK7c78bLwvsdeMH5-11" value="" style="swimlane;html=1;startSize=20;horizontal=1;containerType=tree;glass=0;fontFamily=Comic Sans MS;" parent="1" vertex="1">
          <mxGeometry x="59" y="10" width="710" height="660" as="geometry" />
        </mxCell>
        <mxCell id="_yjlvsBiY8l4vG5CGX0j-29" style="edgeStyle=orthogonalEdgeStyle;rounded=0;orthogonalLoop=1;jettySize=auto;html=1;exitX=0.5;exitY=1;exitDx=0;exitDy=0;entryX=0.5;entryY=0;entryDx=0;entryDy=0;fontFamily=Comic Sans MS;" edge="1" parent="dNxyNK7c78bLwvsdeMH5-11" source="_yjlvsBiY8l4vG5CGX0j-2" target="_yjlvsBiY8l4vG5CGX0j-5">
          <mxGeometry relative="1" as="geometry" />
        </mxCell>
        <mxCell id="_yjlvsBiY8l4vG5CGX0j-34" style="edgeStyle=orthogonalEdgeStyle;rounded=0;orthogonalLoop=1;jettySize=auto;html=1;exitX=0.5;exitY=1;exitDx=0;exitDy=0;entryX=0.5;entryY=0;entryDx=0;entryDy=0;fontFamily=Comic Sans MS;" edge="1" parent="dNxyNK7c78bLwvsdeMH5-11" source="_yjlvsBiY8l4vG5CGX0j-2" target="_yjlvsBiY8l4vG5CGX0j-7">
          <mxGeometry relative="1" as="geometry" />
        </mxCell>
        <mxCell id="_yjlvsBiY8l4vG5CGX0j-2" value="&lt;font face=&quot;Comic Sans MS&quot;&gt;DCC&lt;/font&gt;" style="rounded=0;whiteSpace=wrap;html=1;" vertex="1" parent="dNxyNK7c78bLwvsdeMH5-11">
          <mxGeometry x="120" y="120" width="120" height="50" as="geometry" />
        </mxCell>
        <mxCell id="_yjlvsBiY8l4vG5CGX0j-32" style="edgeStyle=orthogonalEdgeStyle;rounded=0;orthogonalLoop=1;jettySize=auto;html=1;exitX=0.5;exitY=1;exitDx=0;exitDy=0;entryX=0.5;entryY=0;entryDx=0;entryDy=0;fontFamily=Comic Sans MS;" edge="1" parent="dNxyNK7c78bLwvsdeMH5-11" source="_yjlvsBiY8l4vG5CGX0j-3" target="_yjlvsBiY8l4vG5CGX0j-6">
          <mxGeometry relative="1" as="geometry" />
        </mxCell>
        <mxCell id="_yjlvsBiY8l4vG5CGX0j-35" style="edgeStyle=orthogonalEdgeStyle;rounded=0;orthogonalLoop=1;jettySize=auto;html=1;exitX=0.5;exitY=1;exitDx=0;exitDy=0;entryX=0.5;entryY=0;entryDx=0;entryDy=0;fontFamily=Comic Sans MS;" edge="1" parent="dNxyNK7c78bLwvsdeMH5-11" source="_yjlvsBiY8l4vG5CGX0j-3" target="_yjlvsBiY8l4vG5CGX0j-8">
          <mxGeometry relative="1" as="geometry" />
        </mxCell>
        <mxCell id="_yjlvsBiY8l4vG5CGX0j-3" value="&lt;font face=&quot;Comic Sans MS&quot;&gt;NON_DCC&lt;/font&gt;" style="rounded=0;whiteSpace=wrap;html=1;" vertex="1" parent="dNxyNK7c78bLwvsdeMH5-11">
          <mxGeometry x="440" y="120" width="120" height="50" as="geometry" />
        </mxCell>
        <mxCell id="_yjlvsBiY8l4vG5CGX0j-27" style="edgeStyle=orthogonalEdgeStyle;rounded=0;orthogonalLoop=1;jettySize=auto;html=1;exitX=0.5;exitY=1;exitDx=0;exitDy=0;entryX=0.5;entryY=0;entryDx=0;entryDy=0;fontFamily=Comic Sans MS;" edge="1" parent="dNxyNK7c78bLwvsdeMH5-11" source="_yjlvsBiY8l4vG5CGX0j-1" target="_yjlvsBiY8l4vG5CGX0j-2">
          <mxGeometry relative="1" as="geometry" />
        </mxCell>
        <mxCell id="_yjlvsBiY8l4vG5CGX0j-33" style="edgeStyle=orthogonalEdgeStyle;rounded=0;orthogonalLoop=1;jettySize=auto;html=1;exitX=0.5;exitY=1;exitDx=0;exitDy=0;entryX=0.5;entryY=0;entryDx=0;entryDy=0;fontFamily=Comic Sans MS;" edge="1" parent="dNxyNK7c78bLwvsdeMH5-11" source="_yjlvsBiY8l4vG5CGX0j-1" target="_yjlvsBiY8l4vG5CGX0j-3">
          <mxGeometry relative="1" as="geometry" />
        </mxCell>
        <mxCell id="_yjlvsBiY8l4vG5CGX0j-1" value="&lt;font face=&quot;Comic Sans MS&quot;&gt;Click payment button&lt;/font&gt;" style="rounded=0;whiteSpace=wrap;html=1;" vertex="1" parent="dNxyNK7c78bLwvsdeMH5-11">
          <mxGeometry x="285" y="30" width="140" height="50" as="geometry" />
        </mxCell>
        <mxCell id="_yjlvsBiY8l4vG5CGX0j-36" style="edgeStyle=orthogonalEdgeStyle;rounded=0;orthogonalLoop=1;jettySize=auto;html=1;exitX=0.5;exitY=1;exitDx=0;exitDy=0;entryX=0.5;entryY=0;entryDx=0;entryDy=0;fontFamily=Comic Sans MS;" edge="1" parent="dNxyNK7c78bLwvsdeMH5-11" source="_yjlvsBiY8l4vG5CGX0j-5" target="_yjlvsBiY8l4vG5CGX0j-9">
          <mxGeometry relative="1" as="geometry" />
        </mxCell>
        <mxCell id="_yjlvsBiY8l4vG5CGX0j-5" value="3DS" style="rounded=0;whiteSpace=wrap;html=1;fontFamily=Comic Sans MS;" vertex="1" parent="dNxyNK7c78bLwvsdeMH5-11">
          <mxGeometry x="40" y="230" width="120" height="50" as="geometry" />
        </mxCell>
        <mxCell id="_yjlvsBiY8l4vG5CGX0j-39" style="edgeStyle=orthogonalEdgeStyle;rounded=0;orthogonalLoop=1;jettySize=auto;html=1;exitX=0.5;exitY=1;exitDx=0;exitDy=0;entryX=0.25;entryY=0;entryDx=0;entryDy=0;fontFamily=Comic Sans MS;" edge="1" parent="dNxyNK7c78bLwvsdeMH5-11" source="_yjlvsBiY8l4vG5CGX0j-7" target="_yjlvsBiY8l4vG5CGX0j-25">
          <mxGeometry relative="1" as="geometry" />
        </mxCell>
        <mxCell id="_yjlvsBiY8l4vG5CGX0j-52" value="2" style="edgeLabel;html=1;align=center;verticalAlign=middle;resizable=0;points=[];fontFamily=Comic Sans MS;" vertex="1" connectable="0" parent="_yjlvsBiY8l4vG5CGX0j-39">
          <mxGeometry x="0.9055" y="1" relative="1" as="geometry">
            <mxPoint y="1" as="offset" />
          </mxGeometry>
        </mxCell>
        <mxCell id="_yjlvsBiY8l4vG5CGX0j-7" value="NON_3DS" style="rounded=0;whiteSpace=wrap;html=1;fontFamily=Comic Sans MS;" vertex="1" parent="dNxyNK7c78bLwvsdeMH5-11">
          <mxGeometry x="200" y="230" width="120" height="50" as="geometry" />
        </mxCell>
        <mxCell id="_yjlvsBiY8l4vG5CGX0j-42" style="edgeStyle=orthogonalEdgeStyle;rounded=0;orthogonalLoop=1;jettySize=auto;html=1;exitX=0.5;exitY=1;exitDx=0;exitDy=0;entryX=0.5;entryY=0;entryDx=0;entryDy=0;fontFamily=Comic Sans MS;" edge="1" parent="dNxyNK7c78bLwvsdeMH5-11" source="_yjlvsBiY8l4vG5CGX0j-6" target="_yjlvsBiY8l4vG5CGX0j-24">
          <mxGeometry relative="1" as="geometry" />
        </mxCell>
        <mxCell id="_yjlvsBiY8l4vG5CGX0j-6" value="3DS" style="rounded=0;whiteSpace=wrap;html=1;fontFamily=Comic Sans MS;" vertex="1" parent="dNxyNK7c78bLwvsdeMH5-11">
          <mxGeometry x="374" y="230" width="120" height="50" as="geometry" />
        </mxCell>
        <mxCell id="_yjlvsBiY8l4vG5CGX0j-44" style="edgeStyle=orthogonalEdgeStyle;rounded=0;orthogonalLoop=1;jettySize=auto;html=1;exitX=0.5;exitY=1;exitDx=0;exitDy=0;entryX=0.75;entryY=1;entryDx=0;entryDy=0;fontFamily=Comic Sans MS;" edge="1" parent="dNxyNK7c78bLwvsdeMH5-11" source="_yjlvsBiY8l4vG5CGX0j-8" target="_yjlvsBiY8l4vG5CGX0j-25">
          <mxGeometry relative="1" as="geometry" />
        </mxCell>
        <mxCell id="_yjlvsBiY8l4vG5CGX0j-56" value="6" style="edgeLabel;html=1;align=center;verticalAlign=middle;resizable=0;points=[];fontFamily=Comic Sans MS;" vertex="1" connectable="0" parent="_yjlvsBiY8l4vG5CGX0j-44">
          <mxGeometry x="0.6398" y="3" relative="1" as="geometry">
            <mxPoint as="offset" />
          </mxGeometry>
        </mxCell>
        <mxCell id="_yjlvsBiY8l4vG5CGX0j-8" value="NON_3DS" style="rounded=0;whiteSpace=wrap;html=1;fontFamily=Comic Sans MS;" vertex="1" parent="dNxyNK7c78bLwvsdeMH5-11">
          <mxGeometry x="540" y="230" width="120" height="50" as="geometry" />
        </mxCell>
        <mxCell id="_yjlvsBiY8l4vG5CGX0j-37" style="edgeStyle=orthogonalEdgeStyle;rounded=0;orthogonalLoop=1;jettySize=auto;html=1;exitX=0.5;exitY=1;exitDx=0;exitDy=0;entryX=0.5;entryY=0;entryDx=0;entryDy=0;fontFamily=Comic Sans MS;" edge="1" parent="dNxyNK7c78bLwvsdeMH5-11" source="_yjlvsBiY8l4vG5CGX0j-9" target="_yjlvsBiY8l4vG5CGX0j-11">
          <mxGeometry relative="1" as="geometry" />
        </mxCell>
        <mxCell id="_yjlvsBiY8l4vG5CGX0j-41" style="edgeStyle=orthogonalEdgeStyle;rounded=0;orthogonalLoop=1;jettySize=auto;html=1;exitX=1;exitY=0.5;exitDx=0;exitDy=0;entryX=0;entryY=0.5;entryDx=0;entryDy=0;fontFamily=Comic Sans MS;" edge="1" parent="dNxyNK7c78bLwvsdeMH5-11" source="_yjlvsBiY8l4vG5CGX0j-9" target="_yjlvsBiY8l4vG5CGX0j-25">
          <mxGeometry relative="1" as="geometry" />
        </mxCell>
        <mxCell id="_yjlvsBiY8l4vG5CGX0j-51" value="1" style="edgeLabel;html=1;align=center;verticalAlign=middle;resizable=0;points=[];fontFamily=Comic Sans MS;" vertex="1" connectable="0" parent="_yjlvsBiY8l4vG5CGX0j-41">
          <mxGeometry x="0.6622" y="4" relative="1" as="geometry">
            <mxPoint x="1" y="1" as="offset" />
          </mxGeometry>
        </mxCell>
        <mxCell id="_yjlvsBiY8l4vG5CGX0j-9" value="&lt;p&gt;&lt;font style=&quot;font-size: 13px&quot;&gt;Firectionless&lt;/font&gt;&lt;/p&gt;" style="rounded=0;whiteSpace=wrap;html=1;fontFamily=Comic Sans MS;align=center;" vertex="1" parent="dNxyNK7c78bLwvsdeMH5-11">
          <mxGeometry x="40" y="330" width="120" height="50" as="geometry" />
        </mxCell>
        <mxCell id="_yjlvsBiY8l4vG5CGX0j-38" style="edgeStyle=orthogonalEdgeStyle;rounded=0;orthogonalLoop=1;jettySize=auto;html=1;exitX=0.5;exitY=1;exitDx=0;exitDy=0;entryX=0.5;entryY=0;entryDx=0;entryDy=0;fontFamily=Comic Sans MS;" edge="1" parent="dNxyNK7c78bLwvsdeMH5-11" source="_yjlvsBiY8l4vG5CGX0j-11" target="_yjlvsBiY8l4vG5CGX0j-25">
          <mxGeometry relative="1" as="geometry" />
        </mxCell>
        <mxCell id="_yjlvsBiY8l4vG5CGX0j-53" value="3" style="edgeLabel;html=1;align=center;verticalAlign=middle;resizable=0;points=[];fontFamily=Comic Sans MS;" vertex="1" connectable="0" parent="_yjlvsBiY8l4vG5CGX0j-38">
          <mxGeometry x="0.8769" y="1" relative="1" as="geometry">
            <mxPoint as="offset" />
          </mxGeometry>
        </mxCell>
        <mxCell id="_yjlvsBiY8l4vG5CGX0j-11" value="&lt;p&gt;&lt;span style=&quot;font-size: 13px&quot;&gt;Challenge&lt;/span&gt;&lt;/p&gt;" style="rounded=0;whiteSpace=wrap;html=1;fontFamily=Comic Sans MS;align=center;" vertex="1" parent="dNxyNK7c78bLwvsdeMH5-11">
          <mxGeometry x="40" y="410" width="120" height="50" as="geometry" />
        </mxCell>
        <mxCell id="_yjlvsBiY8l4vG5CGX0j-46" style="edgeStyle=orthogonalEdgeStyle;rounded=0;orthogonalLoop=1;jettySize=auto;html=1;exitX=0.5;exitY=1;exitDx=0;exitDy=0;entryX=0.75;entryY=0;entryDx=0;entryDy=0;fontFamily=Comic Sans MS;" edge="1" parent="dNxyNK7c78bLwvsdeMH5-11" source="_yjlvsBiY8l4vG5CGX0j-12" target="_yjlvsBiY8l4vG5CGX0j-25">
          <mxGeometry relative="1" as="geometry" />
        </mxCell>
        <mxCell id="_yjlvsBiY8l4vG5CGX0j-54" value="4" style="edgeLabel;html=1;align=center;verticalAlign=middle;resizable=0;points=[];fontFamily=Comic Sans MS;" vertex="1" connectable="0" parent="_yjlvsBiY8l4vG5CGX0j-46">
          <mxGeometry x="0.6872" y="-2" relative="1" as="geometry">
            <mxPoint y="1" as="offset" />
          </mxGeometry>
        </mxCell>
        <mxCell id="_yjlvsBiY8l4vG5CGX0j-12" value="&lt;p&gt;&lt;span style=&quot;font-size: 13px&quot;&gt;Challenge&lt;/span&gt;&lt;/p&gt;" style="rounded=0;whiteSpace=wrap;html=1;fontFamily=Comic Sans MS;align=center;" vertex="1" parent="dNxyNK7c78bLwvsdeMH5-11">
          <mxGeometry x="374" y="410" width="120" height="50" as="geometry" />
        </mxCell>
        <mxCell id="_yjlvsBiY8l4vG5CGX0j-43" style="edgeStyle=orthogonalEdgeStyle;rounded=0;orthogonalLoop=1;jettySize=auto;html=1;exitX=1;exitY=0.5;exitDx=0;exitDy=0;entryX=1;entryY=0.5;entryDx=0;entryDy=0;fontFamily=Comic Sans MS;" edge="1" parent="dNxyNK7c78bLwvsdeMH5-11" source="_yjlvsBiY8l4vG5CGX0j-24" target="_yjlvsBiY8l4vG5CGX0j-25">
          <mxGeometry relative="1" as="geometry" />
        </mxCell>
        <mxCell id="_yjlvsBiY8l4vG5CGX0j-55" value="5" style="edgeLabel;html=1;align=center;verticalAlign=middle;resizable=0;points=[];fontFamily=Comic Sans MS;" vertex="1" connectable="0" parent="_yjlvsBiY8l4vG5CGX0j-43">
          <mxGeometry x="0.7885" y="-3" relative="1" as="geometry">
            <mxPoint x="1" as="offset" />
          </mxGeometry>
        </mxCell>
        <mxCell id="_yjlvsBiY8l4vG5CGX0j-45" style="edgeStyle=orthogonalEdgeStyle;rounded=0;orthogonalLoop=1;jettySize=auto;html=1;exitX=0.5;exitY=1;exitDx=0;exitDy=0;entryX=0.5;entryY=0;entryDx=0;entryDy=0;fontFamily=Comic Sans MS;" edge="1" parent="dNxyNK7c78bLwvsdeMH5-11" source="_yjlvsBiY8l4vG5CGX0j-24" target="_yjlvsBiY8l4vG5CGX0j-12">
          <mxGeometry relative="1" as="geometry" />
        </mxCell>
        <mxCell id="_yjlvsBiY8l4vG5CGX0j-24" value="&lt;p&gt;&lt;font style=&quot;font-size: 13px&quot;&gt;Firectionless&lt;/font&gt;&lt;/p&gt;" style="rounded=0;whiteSpace=wrap;html=1;fontFamily=Comic Sans MS;align=center;" vertex="1" parent="dNxyNK7c78bLwvsdeMH5-11">
          <mxGeometry x="374" y="330" width="120" height="50" as="geometry" />
        </mxCell>
        <mxCell id="_yjlvsBiY8l4vG5CGX0j-25" value="Rsult page" style="rounded=0;whiteSpace=wrap;html=1;labelBackgroundColor=none;fontFamily=Comic Sans MS;" vertex="1" parent="dNxyNK7c78bLwvsdeMH5-11">
          <mxGeometry x="300" y="530" width="110" height="45" as="geometry" />
        </mxCell>
      </root>
    </mxGraphModel>
  </diagram>
</mxfile>
